<?xml version="1.0" encoding="utf-8"?>
<svg version="1.0" xmlns="http://www.w3.org/2000/svg" width="1024.000000pt" height="1024.000000pt" viewBox="0 0 1024.000000 1024.000000" preserveAspectRatio="xMidYMid meet">
  <defs>
    <linearGradient gradientUnits="userSpaceOnUse" x1="4805.658" y1="520" x2="4805.658" y2="9720.226" id="gradient-0" gradientTransform="matrix(0.003977, -0.999992, 0.908236, 0.003612, 160.853985, 9870.377166)">
      <stop offset="0" style="stop-color: rgb(0, 153, 153);"/>
      <stop offset="1" style="stop-color: rgb(0, 74, 68);"/>
    </linearGradient>
  </defs>
  <g transform="translate(0.000000,1024.000000) scale(0.100000,-0.100000)" fill="#000000" stroke="none">
    <ellipse style="stroke: rgb(0, 0, 0); fill: rgb(255, 255, 255);" transform="matrix(1, 0, 0, -1, 0, 0)" cx="5120" cy="-5120" rx="5120" ry="5120"/>
    <path d="M 4946.839 8290.017 L 4946.839 7856.839 L 5125.017 7856.839 L 5303.194 7856.839 L 5303.194 8290.017 L 5303.194 8723.195 L 5125.017 8723.195 L 4946.839 8723.195 L 4946.839 8290.017 Z" style="fill: rgb(0, 65, 51);"/>
    <path d="M 4946.839 2033.178 L 4946.839 1600 L 5125.017 1600 L 5303.194 1600 L 5303.194 2033.178 L 5303.194 2466.356 L 5125.017 2466.356 L 4946.839 2466.356 L 4946.839 2033.178 Z" style="fill: rgb(0, 65, 51);"/>
    <path d="M 1855 5117.124 L 1855 4683.946 L 2033.178 4683.946 L 2211.355 4683.946 L 2211.355 5117.124 L 2211.355 5550.302 L 2033.178 5550.302 L 1855 5550.302 L 1855 5117.124 Z" style="fill: rgb(0, 65, 51); transform-box: fill-box; transform-origin: 50% 50%;" transform="matrix(0, -1, 1, 0, 0.000242, -0.000141)"/>
    <path d="M 8028.636 5117.126 L 8028.636 4683.948 L 8206.814 4683.948 L 8384.991 4683.948 L 8384.991 5117.126 L 8384.991 5550.304 L 8206.814 5550.304 L 8028.636 5550.304 L 8028.636 5117.126 Z" style="fill: rgb(0, 65, 51); transform-origin: 8206.82px 5117.12px;" transform="matrix(0, -1, 1, 0, -0.000261, -0.000102)"/>
    <path d="M4670 9704 c-1566 -154 -2950 -1100 -3655 -2499 -280 -554 -437 -1111 -486 -1727 -15 -196 -7 -708 15 -888 110 -902 459 -1716 1038 -2420 128 -156 416 -445 568 -571 404 -334 814 -579 1270 -758 247 -97 361 -134 592 -191 395 -97 682 -130 1120 -130 481 0 861 54 1308 187 141 42 218 68 425 148 161 61 516 244 700 360 582 365 1097 879 1458 1456 37 59 67 112 67 118 0 8 -134 11 -494 11 l-493 0 -105 -122 c-263 -306 -577 -575 -905 -776 -488 -299 -1062 -492 -1620 -542 -182 -17 -687 -8 -848 14 -1133 159 -2111 790 -2709 1748 -302 483 -488 1018 -551 1588 -17 158 -20 608 -5 775 83 903 526 1795 1193 2403 281 256 541 437 867 602 387 195 758 309 1230 377 159 23 746 26 905 5 649 -87 1174 -284 1691 -634 261 -177 584 -470 778 -705 l68 -83 499 0 c274 0 499 2 499 5 0 17 -192 309 -283 430 -179 237 -475 553 -702 747 -643 549 -1490 931 -2325 1048 -295 42 -819 53 -1110 24z" style="fill: url(&quot;#gradient-0&quot;);"/>
    <rect x="-4946.839" y="7636.06" width="356.355" height="2697.108" style="stroke: rgb(0, 0, 0); fill: rgb(0, 65, 51);" transform="matrix(1, 0, -0.004884, -1, 9937.562433, 15272.120117)" rx="178.178" ry="178.178"/>
    <rect x="4946.839" y="-5505.512" width="356.355" height="1944.584" style="stroke: rgb(0, 0, 0); fill: rgb(0, 65, 51); transform-box: fill-box; transform-origin: 50% 50%;" transform="matrix(0.731232, 0.682129, 0.678557, -0.734564, 605.283773, 8992.776182)" rx="178.178" ry="178.178"/>
  </g>
</svg>